HIERARCHY
ROOT hip
{
  OFFSET 0 0 0
  CHANNELS 6 Xposition Yposition Zposition Zrotation Yrotation Xrotation
  JOINT abdomen
  {
    OFFSET 0 20.6881 -0.73152
    CHANNELS 3 Zrotation Xrotation Yrotation
    JOINT chest
    {
      OFFSET 0 11.7043 -0.48768
      CHANNELS 3 Zrotation Xrotation Yrotation
      JOINT neck
      {
        OFFSET 0 22.1894 -2.19456
        CHANNELS 3 Zrotation Xrotation Yrotation
        JOINT head
        {
          OFFSET -0.24384 7.07133 1.2192
          CHANNELS 3 Zrotation Xrotation Yrotation
          JOINT leftEye
          {
            OFFSET 4.14528 8.04674 8.04672
            CHANNELS 3 Zrotation Xrotation Yrotation
            End Site
            {
              OFFSET 1 0 0
            }
          }
          JOINT rightEye
          {
            OFFSET -3.6576 8.04674 8.04672
            CHANNELS 3 Zrotation Xrotation Yrotation
            End Site
            {
              OFFSET 1 0 0
            }
          }
        }
      }
      JOINT rCollar
      {
        OFFSET -2.68224 19.2634 -4.8768
        CHANNELS 3 Zrotation Xrotation Yrotation
        JOINT rShldr
        {
          OFFSET -8.77824 -1.95073 1.46304
          CHANNELS 3 Zrotation Xrotation Yrotation
          JOINT rForeArm
          {
            OFFSET -28.1742 -1.7115 0.48768
            CHANNELS 3 Zrotation Xrotation Yrotation
            JOINT rHand
            {
              OFFSET -22.5879 0.773209 7.07136
              CHANNELS 3 Zrotation Xrotation Yrotation
              JOINT rThumb1
              {
                OFFSET -1.2192 -0.487915 3.41376
                CHANNELS 3 Zrotation Xrotation Yrotation
                JOINT rThumb2
                {
                  OFFSET -3.37035 -0.52449 3.41376
                  CHANNELS 3 Zrotation Xrotation Yrotation
                  End Site
                  {
                    OFFSET -1.78271 -1.18214 1.43049
                  }
                }
              }
              JOINT rIndex1
              {
                OFFSET -7.75947 0.938293 5.60832
                CHANNELS 3 Zrotation Xrotation Yrotation
                JOINT rIndex2
                {
                  OFFSET -2.54057 -0.884171 1.56538
                  CHANNELS 3 Zrotation Xrotation Yrotation
                  End Site
                  {
                    OFFSET -1.62519 -0.234802 1.16502
                  }
                }
              }
              JOINT rMid1
              {
                OFFSET -8.24714 1.18213 3.41376
                CHANNELS 3 Zrotation Xrotation Yrotation
                JOINT rMid2
                {
                  OFFSET -3.10165 -0.590103 1.0647
                  CHANNELS 3 Zrotation Xrotation Yrotation
                  End Site
                  {
                    OFFSET -2.48547 -0.328903 0.83742
                  }
                }
              }
              JOINT rRing1
              {
                OFFSET -8.82822 0.546677 1.51678
                CHANNELS 3 Zrotation Xrotation Yrotation
                JOINT rRing2
                {
                  OFFSET -2.60934 -0.819778 -0.0198488
                  CHANNELS 3 Zrotation Xrotation Yrotation
                  End Site
                  {
                    OFFSET -2.33842 -0.294052 0.168128
                  }
                }
              }
              JOINT rPinky1
              {
                OFFSET -8.27202 -0.0477905 -0.4584
                CHANNELS 3 Zrotation Xrotation Yrotation
                JOINT rPinky2
                {
                  OFFSET -1.82734 -0.647385 -0.700984
                  CHANNELS 3 Zrotation Xrotation Yrotation
                  End Site
                  {
                    OFFSET -1.69225 -0.51767 -0.607171
                  }
                }
              }
            }
          }
        }
      }
      JOINT lCollar
      {
        OFFSET 2.68224 19.2634 -4.8768
        CHANNELS 3 Zrotation Xrotation Yrotation
        JOINT lShldr
        {
          OFFSET 8.77824 -1.95073 1.46304
          CHANNELS 3 Zrotation Xrotation Yrotation
          JOINT lForeArm
          {
            OFFSET 28.1742 -1.7115 0.48768
            CHANNELS 3 Zrotation Xrotation Yrotation
            JOINT lHand
            {
              OFFSET 22.5879 0.773209 7.07136
              CHANNELS 3 Zrotation Xrotation Yrotation
              JOINT lThumb1
              {
                OFFSET 1.2192 -0.487915 3.41376
                CHANNELS 3 Zrotation Xrotation Yrotation
                JOINT lThumb2
                {
                  OFFSET 3.37035 -0.52449 3.41376
                  CHANNELS 3 Zrotation Xrotation Yrotation
                  End Site
                  {
                    OFFSET 1.78271 -1.18214 1.43049
                  }
                }
              }
              JOINT lIndex1
              {
                OFFSET 7.75947 0.938293 5.60832
                CHANNELS 3 Zrotation Xrotation Yrotation
                JOINT lIndex2
                {
                  OFFSET 2.54057 -0.884171 1.56538
                  CHANNELS 3 Zrotation Xrotation Yrotation
                  End Site
                  {
                    OFFSET 1.62519 -0.234802 1.16502
                  }
                }
              }
              JOINT lMid1
              {
                OFFSET 8.24714 1.18213 3.41376
                CHANNELS 3 Zrotation Xrotation Yrotation
                JOINT lMid2
                {
                  OFFSET 3.10165 -0.590103 1.0647
                  CHANNELS 3 Zrotation Xrotation Yrotation
                  End Site
                  {
                    OFFSET 2.48547 -0.328903 0.83742
                  }
                }
              }
              JOINT lRing1
              {
                OFFSET 8.82822 0.546677 1.51678
                CHANNELS 3 Zrotation Xrotation Yrotation
                JOINT lRing2
                {
                  OFFSET 2.60934 -0.819778 -0.0198488
                  CHANNELS 3 Zrotation Xrotation Yrotation
                  End Site
                  {
                    OFFSET 2.33842 -0.294052 0.168128
                  }
                }
              }
              JOINT lPinky1
              {
                OFFSET 8.27202 -0.0477905 -0.4584
                CHANNELS 3 Zrotation Xrotation Yrotation
                JOINT lPinky2
                {
                  OFFSET 1.82734 -0.647385 -0.700984
                  CHANNELS 3 Zrotation Xrotation Yrotation
                  End Site
                  {
                    OFFSET 1.69225 -0.51767 -0.607171
                  }
                }
              }
            }
          }
        }
      }
    }
  }
  JOINT rButtock
  {
    OFFSET -8.77824 4.35084 1.2192
    CHANNELS 3 Zrotation Xrotation Yrotation
    JOINT rThigh
    {
      OFFSET 0 -1.70687 -2.19456
      CHANNELS 3 Zrotation Xrotation Yrotation
      JOINT rShin
      {
        OFFSET 0 -36.8199 0.73152
        CHANNELS 3 Zrotation Xrotation Yrotation
        JOINT rFoot
        {
          OFFSET 0.73152 -45.1104 -5.12064
          CHANNELS 3 Zrotation Xrotation Yrotation
          End Site
          {
            OFFSET -1.1221 -3.69964 12.103
          }
        }
      }
    }
  }
  JOINT lButtock
  {
    OFFSET 8.77824 4.35084 1.2192
    CHANNELS 3 Zrotation Xrotation Yrotation
    JOINT lThigh
    {
      OFFSET 0 -1.70687 -2.19456
      CHANNELS 3 Zrotation Xrotation Yrotation
      JOINT lShin
      {
        OFFSET 0 -36.8199 0.73152
        CHANNELS 3 Zrotation Xrotation Yrotation
        JOINT lFoot
        {
          OFFSET -0.73152 -45.1104 -5.12064
          CHANNELS 3 Zrotation Xrotation Yrotation
          End Site
          {
            OFFSET 1.1221 -3.69964 12.103
          }
        }
      }
    }
  }
}
MOTION
Frames:	4
Frame Time:	0.00833333
-6.10746 83.9933 -23.0389 0.0 0.0 0.0 -1.70621 -0.00254501 -0.04645 -0.47056 0.00242727 -0.0814846 4.15125e-14 0.0 -1.24241e-16 1.2411e-13 3.18055e-15 -4.50371e-16 -0.0 0.0 0.0 -0.0 0.0 0.0 2.06728e-14 -2.87306e-17 9.93923e-17 4.36638e-13 -2.91965e-16 7.95139e-16 7.47649e-12 -2.26277e-12 -1.08139e-13 8.57359e-11 2.14593e-12 -1.94014e-13 2.02207e-10 -2.59382e-13 -6.67916e-13 3.49198e-10 -4.51639e-13 -1.16408e-12 2.02211e-10 -2.58022e-13 -6.71097e-13 7.73091 5.47488 0.417314 2.02208e-10 -2.59911e-13 -6.64736e-13 2.90554 0.965183 0.102902 2.02216e-10 -2.59016e-13 -6.67916e-13 10.2786 0.731801 0.0259123 2.022e-10 -2.5683e-13 -6.61555e-13 2.22167 -0.733487 -0.20892 2.05764e-14 -3.02836e-17 -1.98785e-16 4.33101e-13 -5.77718e-16 -9.93923e-16 7.50392e-12 2.21605e-12 -6.67917e-14 8.5717e-11 -2.34057e-12 -2.16278e-13 2.02229e-10 -2.72211e-13 -6.67916e-13 3.49254e-10 -4.70722e-13 -1.145e-12 2.02222e-10 -2.71142e-13 -6.52014e-13 -7.73091 5.47488 -0.417314 2.02228e-10 -2.72335e-13 -6.64736e-13 -2.90554 0.965183 -0.102902 2.02222e-10 -2.72136e-13 -6.63941e-13 -10.2786 0.731801 -0.0259123 2.02236e-10 -2.67962e-13 -6.71097e-13 -2.22167 -0.733487 0.20892 -2.03217e-16 0.0 -3.88251e-19 -0.810711 -1.92439 -0.00361139 -0.0090146 -2.07859 -0.0743054 -0.483753 3.99775 0.136121 2.03217e-16 0.0 3.88251e-19 -1.7866 -6.8542 0.170486 -0.00323736 6.85136 -0.0863791 0.513153 -0.00230246 -0.0582069
-6.05667 82.4249 -24.6113 1.4245 -4.3943 6.9808 -0.652175 2.16499 -0.982444 0.774274 -0.00430847 -0.327474 -2.84023 -1.13665 -0.837713 2.42459 2.98034 -0.904205 -0.0 0.0 0.0 -0.0 0.0 0.0 1.78853e-14 3.23804e-14 -3.7123e-14 19.9872 4.98374 1.96621 -3.94277 -1.73959 6.2135 0.0700649 5.8778 0.810458 3.39498e-10 -6.11937e-11 -1.8043e-10 5.82866e-10 -1.02648e-10 -3.14776e-10 3.39501e-10 -6.11917e-11 -1.80436e-10 7.73091 5.47488 0.417314 3.39497e-10 -6.11931e-11 -1.80427e-10 2.90554 0.965183 0.102902 3.39506e-10 -6.11925e-11 -1.8043e-10 10.2786 0.731801 0.0259123 3.39492e-10 -6.11904e-11 -1.80424e-10 2.22167 -0.733487 -0.20892 1.78e-14 3.23804e-14 -3.73804e-14 -21.8819 6.87351 -0.850729 5.73609 -3.00112 -8.48985 -0.0102065 2.24228 -0.314262 3.02423e-10 1.07787e-10 -9.35618e-11 5.22206e-10 1.84597e-10 -1.63805e-10 3.02417e-10 1.07788e-10 -9.35477e-11 -7.73091 5.47488 -0.417314 3.02425e-10 1.07787e-10 -9.35567e-11 -2.90554 0.965183 -0.102902 3.02416e-10 1.07788e-10 -9.35565e-11 -10.2786 0.731801 -0.0259123 3.02429e-10 1.07791e-10 -9.35639e-11 -2.22167 -0.733487 0.20892 -2.03217e-16 0.0 -3.88251e-19 -2.1112 -8.75092 0.959299 -0.00253025 6.88245 0.0623947 -0.478366 0.473154 -0.257815 2.03217e-16 0.0 3.88251e-19 0.0933159 -10.7118 -1.48494 -0.0314303 12.3716 -0.202589 0.737344 -1.67278 3.64911
-6.08037 82.4261 -24.5614 1.4794 -4.3355 6.9155 0.534917 4.45145 -1.97746 2.08715 -0.0150745 -0.58776 -5.87861 -2.3382 -1.72508 5.09193 6.12293 -1.86927 -0.0 0.0 0.0 -0.0 0.0 0.0 1.5819e-14 6.67778e-14 -7.74266e-14 40.7431 10.2441 4.09997 -7.71216 -3.5164 12.8146 -0.0403333 12.0784 1.6948 4.68401e-10 -1.18575e-10 -3.77749e-10 8.01699e-10 -1.98522e-10 -6.58582e-10 4.68404e-10 -1.18573e-10 -3.77758e-10 7.73091 5.47488 0.417314 4.684e-10 -1.18574e-10 -3.77746e-10 2.90554 0.965183 0.102902 4.68409e-10 -1.18573e-10 -3.77749e-10 10.2786 0.731801 0.0259123 4.68397e-10 -1.18571e-10 -3.77745e-10 2.22167 -0.733487 -0.20892 1.57453e-14 6.67795e-14 -7.76409e-14 -44.796 14.1269 -1.78416 10.8242 -5.93673 -17.5116 0.00585396 4.6202 -0.649172 3.95173e-10 1.94046e-10 -2.10201e-10 6.82136e-10 3.31784e-10 -3.67608e-10 3.95168e-10 1.94047e-10 -2.10189e-10 -7.73091 5.47488 -0.417314 3.95178e-10 1.94046e-10 -2.10194e-10 -2.90554 0.965183 -0.102902 3.95165e-10 1.94046e-10 -2.10195e-10 -10.2786 0.731801 -0.0259123 3.95177e-10 1.94049e-10 -2.10202e-10 -2.22167 -0.733487 0.20892 -2.03217e-16 0.0 -3.88251e-19 -3.2311 -15.9651 2.02805 -0.0436032 16.3566 0.214605 -0.524192 -3.2568 -0.667014 2.03217e-16 0.0 3.88251e-19 1.82552 -14.7695 -3.30084 -0.0357402 18.1954 -0.332973 1.21101 -3.42004 7.5943
-6.11817 82.4243 -24.5287 1.5044 -4.2772 6.8952 1.66944 6.49293 -2.87076 3.26377 -0.0177784 -0.819453 -8.62051 -3.40704 -2.51709 7.55879 8.93207 -2.74222 -0.0 0.0 0.0 -0.0 0.0 0.0 1.23104e-14 9.71987e-14 -1.11568e-13 58.9071 14.8796 6.08097 -10.715 -4.97375 18.7049 -0.309379 17.6189 2.5377 6.14078e-10 -1.83062e-10 -5.39954e-10 1.0502e-09 -3.0704e-10 -9.42001e-10 6.14081e-10 -1.83059e-10 -5.39965e-10 7.73091 5.47488 0.417314 6.14076e-10 -1.8306e-10 -5.3995e-10 2.90554 0.965183 0.102902 6.14086e-10 -1.83059e-10 -5.39953e-10 10.2786 0.731801 0.0259123 6.14076e-10 -1.83057e-10 -5.3995e-10 2.22167 -0.733487 -0.20892 1.22472e-14 9.72018e-14 -1.11744e-13 -64.998 20.6017 -2.70708 14.615 -8.21423 -25.7171 0.0436044 6.72603 -0.948593 5.02811e-10 3.23907e-10 -2.7935e-10 8.68111e-10 5.54734e-10 -4.89124e-10 5.02808e-10 3.23907e-10 -2.79339e-10 -7.73091 5.47488 -0.417314 5.02819e-10 3.23906e-10 -2.79341e-10 -2.90554 0.965183 -0.102902 5.02803e-10 3.23907e-10 -2.79342e-10 -10.2786 0.731801 -0.0259123 5.02814e-10 3.23909e-10 -2.7935e-10 -2.22167 -0.733487 0.20892 -2.03217e-16 0.0 -3.88251e-19 -3.97516 -22.3783 3.08407 -0.127042 24.8041 0.368328 -0.613421 -6.57494 -1.05192 2.03217e-16 0.0 3.88251e-19 3.15207 -18.3727 -4.96963 -0.014645 23.4117 -0.460001 1.8318 -4.93039 11.1007
